<svg xmlns="http://www.w3.org/2000/svg" viewBox="0 0 294.79 175.56"><defs><style>.cls-1{fill:#ed2087;}.cls-2{fill:#161143;}.cls-3{fill:#d1e069;}</style></defs><g id="Layer_2" data-name="Layer 2"><g id="Layer_1-2" data-name="Layer 1"><path class="cls-1" d="M253.9,76.05l-18.72,8.26a106.12,106.12,0,0,1,.76,12.79c0,22.21-6.5,40.22-14.51,40.22s-14.52-18-14.52-40.22v-.33L160.33,117.3a105.5,105.5,0,0,1,1,14.53c0,22.21-6.5,40.21-14.51,40.21s-14.52-18-14.52-40.21a104.25,104.25,0,0,1,1.06-15L86.58,96.19v.91c0,22.21-6.49,40.22-14.51,40.22s-14.52-18-14.52-40.22a106.3,106.3,0,0,1,.82-13.34L40.89,76.05C-4.73,56,14,3.94,67.05,3.53h1.5c33.66,0,63.06,8.93,78.85,22.19,15.78-13.26,45.16-22.19,78.82-22.19h1.52C280.77,3.94,299.51,56,253.9,76.05Z"/><path class="cls-2" d="M146.8,175.56c-11.84,0-18-22-18-43.73a108.49,108.49,0,0,1,.74-12.88L90,101.54c-.78,20.19-6.91,39.29-17.94,39.29-11.84,0-18-22-18-43.73,0-3.83.18-7.58.54-11.17L39.47,79.27c-20.41-9-30.82-25.54-27.18-43.18C15.85,18.89,34.49.27,67,0h1.53c32.2,0,61.36,7.89,78.85,21.21C164.88,7.89,194,0,226.22,0c.54,0,1.08,0,1.62,0,32.46.25,51.1,18.87,54.66,36.07,3.64,17.64-6.77,34.19-27.18,43.18h0L239,86.48c.33,3.46.5,7,.5,10.62,0,21.73-6.2,43.73-18,43.73-10.93,0-17.05-18.74-17.93-38.72l-39.35,17.35a111,111,0,0,1,.68,12.37C164.83,153.56,158.63,175.56,146.8,175.56ZM83.07,90.8l54.13,23.86-.38,2.64a100.83,100.83,0,0,0-1,14.53c0,22.06,6.62,36.7,11,36.7s11-14.64,11-36.7a101.41,101.41,0,0,0-1-14l-.38-2.63,54-23.79V97.1c0,22.06,6.62,36.7,11,36.7s11-14.64,11-36.7a101.54,101.54,0,0,0-.73-12.37l-.32-2.59,21.11-9.31c17.46-7.69,26.11-20.9,23.13-35.32S256.34,7.27,227.71,7.05c-.54,0-1,0-1.49,0-31.54,0-60.87,8.19-76.56,21.37l-2.26,1.9-2.26-1.9C129.44,15.22,100.1,7,68.55,7c-.45,0-.93,0-1.4,0-28.7.22-45,15.94-48,30.46s5.67,27.63,23.13,35.32L62.19,81.6l-.33,2.6a102.62,102.62,0,0,0-.79,12.9c0,22.06,6.62,36.7,11,36.7s11-14.64,11-36.7Z"/><path class="cls-2" d="M130.45,93.25h-2.32a.72.72,0,0,1-.72-.72h0a.72.72,0,0,0-.72-.72H114a.71.71,0,0,1-.71-.71V89.15a.71.71,0,0,1,.71-.72h12.69a.71.71,0,0,0,.72-.71V79.94a.72.72,0,0,0-.72-.72H114a.71.71,0,0,1-.72-.71V76.59a.72.72,0,0,1,.72-.72h16.47a.71.71,0,0,1,.71.72V92.53A.71.71,0,0,1,130.45,93.25Z"/><path class="cls-2" d="M155.86,79.62a.73.73,0,0,1,.71.83,19.87,19.87,0,0,1-3.78,9.5q-2.89,3.61-8.95,5.84a.73.73,0,0,1-.86-.29l-1.22-1.94a.72.72,0,0,1,.38-1.06A19.37,19.37,0,0,0,149,88.77a11,11,0,0,0,3-4.88.73.73,0,0,0-.69-.94H137.73a.71.71,0,0,1-.71-.72V80.34a.71.71,0,0,1,.71-.72Zm-2.07-3h-13.9a.71.71,0,0,1-.72-.71V74a.72.72,0,0,1,.72-.72h13.9a.72.72,0,0,1,.72.72v1.9A.71.71,0,0,1,153.79,76.61Z"/><path class="cls-2" d="M180.82,92.14H159.45a.71.71,0,0,1-.71-.72V89.53a.71.71,0,0,1,.71-.72h21.37a.71.71,0,0,1,.71.72v1.89A.71.71,0,0,1,180.82,92.14Zm-2.39-11.79H162a.72.72,0,0,1-.72-.72V77.69A.71.71,0,0,1,162,77h16.4a.71.71,0,0,1,.72.71v1.94A.72.72,0,0,1,178.43,80.35Z"/><path class="cls-2" d="M288.37,46.52A9.08,9.08,0,1,0,272.45,38a6.94,6.94,0,0,0-1.38-.14,6.88,6.88,0,0,0-6.87,6.87c0,.22,0,.43,0,.64A6.13,6.13,0,0,0,260,51.21a.43.43,0,0,1,0,0,12.24,12.24,0,0,0-8.46-3.4H230.16A12,12,0,0,0,226.27,40a11.59,11.59,0,0,0-7.67-2.92,11.45,11.45,0,0,0-8,3.27L204.69,46l-.24.24a13.34,13.34,0,0,0-3.39,6.55l-1.47-4.09c0-.11-.08-.22-.13-.33a10.71,10.71,0,0,0-9.83-6.58,10.93,10.93,0,0,0-1.26.08,10.6,10.6,0,0,0-7.54,4.63,6.28,6.28,0,0,0-4-1.43H153.09a11.81,11.81,0,0,0-8.48,3.55,12,12,0,0,0-2.62,4.1c-.18-.23-.35-.47-.55-.68,0-.06-.09-.11-.13-.16L129.09,38.33a9.94,9.94,0,0,0-8.9-3.5,10.17,10.17,0,0,0-8.79,8.75,10,10,0,0,0,.84,5.43l.24.59A11.86,11.86,0,0,0,103.12,45H71A11.88,11.88,0,0,0,60.24,52c-.14-.18-.28-.37-.43-.54a11.76,11.76,0,0,0-5.13-3.36,11.5,11.5,0,0,0,1.72-5.86A11.85,11.85,0,0,0,44.53,30.1a11.91,11.91,0,0,0-9.47,4.72L33.38,37a10.18,10.18,0,0,0-8.69-8.11,9.94,9.94,0,0,0-8.9,3.5L3.57,46l-.13.16a13.34,13.34,0,0,0,8.83,22.24c.36,0,.73.05,1.08.05a13.35,13.35,0,0,0,12.34-8.24l.14-.35a.26.26,0,0,1,.25-.16h10a.25.25,0,0,1,.21.1l5.21,6.72a11.84,11.84,0,0,0,20.25-2.22A11.86,11.86,0,0,0,71,68.76h32.09A11.89,11.89,0,0,0,115,56.89c0-.43,0-.85-.07-1.26l4.28,10.55a13.35,13.35,0,0,0,12.32,8.19c.36,0,.72,0,1.08-.05a13.38,13.38,0,0,0,11.7-9.46,12.23,12.23,0,0,0,9,4h35.72a.7.7,0,0,1,.53.24l0,0a8.34,8.34,0,0,0,6.43,3,8.78,8.78,0,0,0,1.53-.13,8.41,8.41,0,0,0,6.71-6.62,7.11,7.11,0,0,0,.1-.79,13.28,13.28,0,0,0,8.06,4.13,14,14,0,0,0,1.7.1,13.33,13.33,0,0,0,12.53-8.75h10.18a.26.26,0,0,1,.21.11l5.22,6.73a11.86,11.86,0,0,0,17.93,1.15,11.78,11.78,0,0,0,3.4-8.54,11.22,11.22,0,0,0-.46-3,6,6,0,0,0,2.89.76h2a.27.27,0,0,1,.21.1l5.21,6.71a11.85,11.85,0,1,0,14.93-17.6ZM180,56.53l.06.12h-.27Z"/><path class="cls-3" d="M58.56,59.27a7.65,7.65,0,0,1-13.83,3.56h0L39.6,56.23a4.47,4.47,0,0,0-3.54-1.73h-10a4.48,4.48,0,0,0-4.16,2.79l-.14.35a9.13,9.13,0,1,1-15.06-9.8h0L19,34.19h0a5.86,5.86,0,0,1,9.76,6.32h0L28,42.36a1.87,1.87,0,0,0,1.73,2.57,4.32,4.32,0,0,0,3.42-1.68l5.17-6.66h0a7.66,7.66,0,0,1,13.88,4.59,7.82,7.82,0,0,1-7.91,7.51H26.1a1,1,0,0,0,0,2H51A7.66,7.66,0,0,1,58.56,59.27Z"/><path class="cls-3" d="M110.78,56a7.66,7.66,0,0,1-7.66,7.66H71A7.66,7.66,0,0,1,71,48.3h32.09A7.66,7.66,0,0,1,110.78,56ZM88.62,56a2.84,2.84,0,0,0-2.85-2.84H73.83a2.85,2.85,0,1,0,0,5.69H85.77A2.84,2.84,0,0,0,88.62,56Zm6.88,0a2.85,2.85,0,1,0-2.85,2.85A2.84,2.84,0,0,0,95.5,56Z"/><path class="cls-3" d="M119.25,54.13l-3.1-7.65h0a5.83,5.83,0,0,1-.56-3.31,5.9,5.9,0,0,1,5.1-5.08,5.84,5.84,0,0,1,5.22,2.07h0l12.26,13.65h0a9.13,9.13,0,1,1-15.06,9.81l-.14-.36Z"/><path class="cls-3" d="M200.15,63.63a4.18,4.18,0,0,1-7.37,1.76h0a5,5,0,0,0-3.72-1.69H153.34a7.81,7.81,0,0,1-7.9-7.51,7.65,7.65,0,0,1,7.65-7.8h23.72a2,2,0,0,1,2,1.71,1.91,1.91,0,0,1-1.89,2.1,27.17,27.17,0,0,0-10,3.66l-1,.61a1.87,1.87,0,0,0,1,3.47h16.63a2.3,2.3,0,0,0,1.87-3.64h0c-1.4-1.95-2.91-4.25-1.6-7.25a6.41,6.41,0,0,1,11.89.19h0L200,61.54A4.3,4.3,0,0,1,200.15,63.63Z"/><path class="cls-3" d="M259.41,58.66a7.65,7.65,0,0,1-13.88,4.59h0l-5.11-6.6a4.48,4.48,0,0,0-3.55-1.74H226.43a3.86,3.86,0,0,0-3.62,2.54h0a9.13,9.13,0,1,1-15.19-9.3h0l0,0a1.59,1.59,0,0,1,.13-.13l5.72-5.58a7.3,7.3,0,0,1,10-.21,7.52,7.52,0,0,1,2.22,7.56,1,1,0,0,0,.91,1.39h24.9A7.82,7.82,0,0,1,259.41,58.66Z"/><path class="cls-3" d="M290.57,55.9a7.64,7.64,0,0,1-13.87,4.59h0l-5.12-6.61A4.5,4.5,0,0,0,268,52.16h-2a1.89,1.89,0,0,1,0-3.77h16.6A7.82,7.82,0,0,1,290.57,55.9ZM268.43,43.81a2.65,2.65,0,1,1,2.64,2.64A2.65,2.65,0,0,1,268.43,43.81ZM276,40.49a4.86,4.86,0,1,1,4.86,4.85A4.87,4.87,0,0,1,276,40.49Z"/></g></g></svg>